<svg class="[ social__icon ]" xmlns="http://www.w3.org/2000/svg" viewBox="0 0 64 64"><title>Follow me on Github</title><path d="M32 .7C14.3.7 0 15 0 32.8 0 47 9.2 59 21.9 63.3c1.6.3 2.2-.7 2.2-1.5v-5.5c-9 1.9-10.9-4.3-10.9-4.3-1.5-3.7-3.6-4.7-3.6-4.7-2.9-2 .2-2 .2-2 3.2.2 4.9 3.3 4.9 3.3 2.9 4.9 7.5 3.5 9.3 2.7.3-2.1 1.1-3.5 2-4.3-7.1-.8-14.6-3.6-14.6-15.9 0-3.5 1.2-6.4 3.3-8.6-.3-.8-1.4-4.1.3-8.5 0 0 2.7-.9 8.8 3.3 2.6-.7 5.3-1.1 8-1.1s5.5.4 8 1.1c6.1-4.2 8.8-3.3 8.8-3.3 1.7 4.4.6 7.7.3 8.5 2.1 2.2 3.3 5.1 3.3 8.6 0 12.3-7.5 15.1-14.6 15.9 1.1 1 2.2 3 2.2 5.9v8.8c0 .9.6 1.9 2.2 1.5C54.8 59 64 47 64 32.8 64 15 49.7.7 32 .7z"></path></svg>