<svg id="in_follow" xmlns="http://www.w3.org/2000/svg" viewBox="0 0 64 64" xml:space="preserve" role="img"><title>Follow me on LinkedIn</title><path d="M22.2 33.6v.1-4.2c-.1-1.1-.1-2.4-.1-3.7-.1-1.1-.1-2.2-.1-3.4-.1-1-.1-2-.1-3.2l11.9.1.6 6.1.3.1c.4-.8 1-1.5 1.9-2.4.8-.8 1.8-1.5 2.9-2.3 1.1-.8 2.4-1.4 3.9-1.9 1.5-.4 3.1-.6 5-.8 2.3.1 4.4.5 6.2 1.3 1.9.8 3.6 1.9 5 3.5s2.5 3.5 3.4 6c.7 2.4 1.1 5.2 1.1 8.6v26.2l-13.8.3V39.2c0-1.4-.1-2.7-.4-3.9-.3-1.1-.6-2.2-1.1-3-.6-.8-1.3-1.4-2.1-1.9-.9-.5-2-.8-3.2-.6-.9-.1-1.8 0-2.5.4-.9.4-1.5.8-2.1 1.1-.6.5-1 1-1.4 1.6-.4.6-.8 1.3-1 1.9-.1.4-.1.6-.3.8-.2.2-.2.4-.2.8-.1.4-.1.6-.1.9v26.6l-13.6.1-.1-30.4zM.4 63.9V19.4l13.6-.1V64L.4 63.9zM14.5 7c0 .9-.1 1.8-.5 2.7s-.9 1.6-1.5 2.3c-.6.6-1.4 1-2.3 1.4-.9.4-2 .6-3.1.5-1.1.1-2-.1-2.9-.5-.9-.4-1.6-.8-2.3-1.4-.6-.6-1.1-1.4-1.5-2.3S0 7.9 0 7c0-1 .1-1.9.5-2.8.4-.8.9-1.5 1.5-2.2S3.5.9 4.4.5C5.2.3 6.1.1 7.3 0c1.1.1 2.3.3 3.1.5.9.4 1.5.9 2.1 1.5s1.1 1.4 1.5 2.2c.4.9.5 1.8.5 2.8z"></path></svg>