<svg xmlns="http://www.w3.org/2000/svg" viewBox="0 0 156 156" xml:space="preserve" fill="#fff"><path d="M111.4 57.2c-1.2-.6-2.6-.9-4.2-1.1-1.5-.2-3-.2-4.4-.2h-7.7V72h10c1.3 0 2.6-.1 3.9-.4 1.2-.3 2.4-.7 3.4-1.3 1-.6 1.8-1.4 2.4-2.5s.9-2.4.9-4c0-1.7-.4-3.1-1.2-4.2-.8-1-1.8-1.9-3.1-2.4z"/><path d="M0 0v156h156V0H0zm67.3 88.4c0 3.1-.3 6.2-.8 9.1s-1.6 5.6-3.1 7.8c-1.5 2.3-3.7 4.1-6.6 5.5-2.8 1.4-6.6 2.1-11.2 2.1-5.4 0-9.9-1.3-13.6-3.8-3.7-2.6-6.1-6.6-7.2-12l13.7-3.4c.2 1.7.9 3.1 2.3 4.2 1.3 1.2 2.8 1.7 4.5 1.7s3.1-.4 4-1.3c1-.9 1.7-1.9 2.1-3.2.4-1.3.7-2.7.8-4.2s.1-2.9.1-4.2V43.2h15v45.2zm62-14.6c-1.3 2.7-3 4.8-5.3 6.4-2.2 1.6-4.9 2.7-8 3.4-3.1.7-6.4 1-10 1H95.1v26.5h-15v-68h25.2c3.5 0 6.8.3 10 1 3.1.6 5.9 1.7 8.2 3.3 2.3 1.6 4.2 3.7 5.6 6.3 1.4 2.7 2.1 6 2.1 10 0 4.1-.6 7.4-1.9 10.1z"/></svg>