<?xml version="1.0" encoding="utf-8"?>
<!-- Generator: Adobe Illustrator 24.3.0, SVG Export Plug-In . SVG Version: 6.00 Build 0)  -->
<svg version="1.1" id="Layer_1" xmlns="http://www.w3.org/2000/svg" xmlns:xlink="http://www.w3.org/1999/xlink" x="0px" y="0px"
	 viewBox="0 0 156 156" style="enable-background:new 0 0 156 156;" xml:space="preserve">
<path d="M111.4,57.2c-1.2-0.6-2.6-0.9-4.2-1.1c-1.5-0.2-3-0.2-4.4-0.2h-7.7V72h10c1.3,0,2.6-0.1,3.9-0.4c1.2-0.3,2.4-0.7,3.4-1.3
	c1-0.6,1.8-1.4,2.4-2.5s0.9-2.4,0.9-4c0-1.7-0.4-3.1-1.2-4.2C113.7,58.6,112.7,57.7,111.4,57.2L111.4,57.2z"/>
<path d="M0,0v156h156V0H0z M67.3,88.4c0,3.1-0.3,6.2-0.8,9.1s-1.6,5.6-3.1,7.8c-1.5,2.3-3.7,4.1-6.6,5.5c-2.8,1.4-6.6,2.1-11.2,2.1
	c-5.4,0-9.9-1.3-13.6-3.8c-3.7-2.6-6.1-6.6-7.2-12l13.7-3.4c0.2,1.7,0.9,3.1,2.3,4.2c1.3,1.2,2.8,1.7,4.5,1.7s3.1-0.4,4-1.3
	c1-0.9,1.7-1.9,2.1-3.2c0.4-1.3,0.7-2.7,0.8-4.2s0.1-2.9,0.1-4.2V43.2h15C67.3,43.2,67.3,88.4,67.3,88.4z M129.3,73.8
	c-1.3,2.7-3,4.8-5.3,6.4c-2.2,1.6-4.9,2.7-8,3.4c-3.1,0.7-6.4,1-10,1H95.1v26.5h-15v-68h25.2c3.5,0,6.8,0.3,10,1
	c3.1,0.6,5.9,1.7,8.2,3.3c2.3,1.6,4.2,3.7,5.6,6.3c1.4,2.7,2.1,6,2.1,10C131.2,67.8,130.6,71.1,129.3,73.8L129.3,73.8z"/>
</svg>
